<svg xmlns="http://www.w3.org/2000/svg" xmlns:xlink="http://www.w3.org/1999/xlink" viewBox="0,0,256,256" width="52px" height="52px" fill-rule="nonzero"><g fill="#dbdbdb" fill-rule="nonzero" stroke="none" stroke-width="1" stroke-linecap="butt" stroke-linejoin="miter" stroke-miterlimit="10" stroke-dasharray="" stroke-dashoffset="0" font-family="none" font-weight="none" font-size="none" text-anchor="none" style="mix-blend-mode: normal"><g transform="scale(9.84615,9.84615)"><path d="M13,0.1875c-7.07422,0 -12.8125,5.73828 -12.8125,12.8125c0,7.07422 5.73828,12.8125 12.8125,12.8125c7.07422,0 12.8125,-5.73828 12.8125,-12.8125c0,-7.07422 -5.73828,-12.8125 -12.8125,-12.8125zM13,2.1875c5.96094,0 10.8125,4.85156 10.8125,10.8125c0,0.46875 -0.03516,0.92188 -0.09375,1.375c-0.19922,-0.05078 -0.82422,-0.21094 -1.5,-0.21875c-0.60547,-0.00781 -1.33203,0.09375 -1.71875,0.15625c0.10156,-0.41406 0.1875,-0.85547 0.1875,-1.3125c0,-1.14062 -0.42969,-2.25 -1.1875,-3.1875c0.28125,-0.88281 0.67188,-2.89062 -0.09375,-3.65625c-1.875,0 -2.92969,1.19141 -3.125,1.4375c-0.85937,-0.3125 -1.78906,-0.46875 -2.78125,-0.46875c-0.96875,0 -1.90625,0.14063 -2.75,0.4375c-0.26172,-0.31641 -1.29687,-1.40625 -3.09375,-1.40625c-0.75,0.75 -0.375,2.68359 -0.09375,3.59375c-0.79297,0.95313 -1.25,2.08203 -1.25,3.25c0,0.42969 0.03516,0.85938 0.125,1.25c-0.32812,-0.02734 -1.66016,-0.125 -2.1875,-0.125c-0.52734,0 -1.39453,0.11328 -1.96875,0.25c-0.05859,-0.45312 -0.09375,-0.90625 -0.09375,-1.375c0,-5.96094 4.85156,-10.8125 10.8125,-10.8125zM4.25,14.375c0.51953,0 2.12109,0.14453 2.28125,0.15625c0.02734,0.09375 0.05859,0.1875 0.09375,0.28125c-0.52734,-0.04297 -1.65625,-0.11719 -2.375,-0.03125c-0.87891,0.10547 -1.52734,0.45313 -1.78125,0.59375c-0.05469,-0.24609 -0.11719,-0.5 -0.15625,-0.75c0.55078,-0.12891 1.44922,-0.25 1.9375,-0.25zM22.21875,14.40625c0.65625,0.00781 1.30078,0.14844 1.46875,0.1875c-0.01562,0.11328 -0.04297,0.23047 -0.0625,0.34375c-0.08594,-0.02344 -0.86719,-0.26172 -1.6875,-0.28125c-0.40234,-0.01172 -1.03906,0.05469 -1.53125,0.09375c0.02344,-0.0625 0.04297,-0.125 0.0625,-0.1875c0.33984,-0.04687 1.14844,-0.16406 1.75,-0.15625zM21.90625,14.90625c0.79688,0.01953 1.64063,0.26953 1.6875,0.28125c-0.73828,3.58984 -3.25781,6.51172 -6.59375,7.84375v-1.71875c0,-1.08203 -0.64453,-2.48828 -1.5625,-3.1875c2.58594,-0.37109 4.19531,-1.51562 4.875,-3.125c0.46484,-0.03906 1.17578,-0.10547 1.59375,-0.09375zM5.0625,15c0.71484,0.00391 1.35547,0.03906 1.65625,0.0625c0.69531,1.57422 2.29297,2.69531 4.84375,3.0625c-0.28906,0.22266 -0.55859,0.51172 -0.78125,0.84375c-0.00781,0.01172 -0.02344,0.01953 -0.03125,0.03125c-0.5,0.60156 -1.4375,0.5625 -2.3125,0.5625c-0.89453,0 -1.42969,-0.71484 -1.90625,-1.34375c-0.48047,-0.625 -1.10547,-0.67969 -1.4375,-0.71875c-0.33203,-0.03516 -0.42187,0.13281 -0.25,0.25c0.97266,0.68359 1.35547,1.51953 1.75,2.25c0.35547,0.65625 1.08594,1 1.90625,1h1.53125c-0.01172,0.10156 -0.03125,0.21484 -0.03125,0.3125v2.0625c-3.68359,-1.0625 -6.53516,-4.01562 -7.46875,-7.75c0.19531,-0.10937 0.88281,-0.49219 1.75,-0.59375c0.20703,-0.02344 0.48438,-0.03125 0.78125,-0.03125zM13.5,21c0.27734,0 0.5,0.22266 0.5,0.5v2.25c-0.33203,0.03125 -0.66016,0.0625 -1,0.0625v-2.3125c0,-0.27734 0.22266,-0.5 0.5,-0.5zM11.5,21.59375c0.27734,0 0.5,0.22266 0.5,0.5v1.65625c-0.33203,-0.03125 -0.67578,-0.06641 -1,-0.125v-1.53125c0,-0.27734 0.22266,-0.5 0.5,-0.5zM15.5,21.59375c0.27734,0 0.5,0.22266 0.5,0.5v1.28125c-0.32812,0.09375 -0.66016,0.1875 -1,0.25v-1.53125c0,-0.27734 0.22266,-0.5 0.5,-0.5z"></path></g></g></svg>